<?xml version="1.0"?>
<svg width="64px" height="64px" viewBox="0 0 780.00 780.00" xmlns="http://www.w3.org/2000/svg" xmlns:svg="http://www.w3.org/2000/svg" version="1.1" xml:space="preserve">
 <g class="layer">
  <title>Layer 1</title>
  <g id="SVGRepo_bgCarrier" stroke-width="0"/>
  <g id="SVGRepo_tracerCarrier" stroke-linecap="round" stroke-linejoin="round"/>
  <g id="SVGRepo_iconCarrier">
   <path d="m558.99,273.89l0.42,-99.42c0,-94.5 -75.61,-171.37 -168.54,-171.37s-168.54,76.88 -168.54,171.37l-1.09,99.42l-48.47,0l0,-55.44l-114.84,1.11l-54.8,0l117.85,559.21l539.77,0l117.85,-559.21l-169.63,-0.55l0,54.89l-49.98,0zm-283.44,-99.42c0,-64.65 51.74,-117.26 115.32,-117.26c63.58,0 115.32,52.61 115.32,117.26l0,42.44l-230.64,0l0,-42.44zm342.17,550.19l-453.71,0l-95.04,-450.98l38.33,0l65.46,0l48.47,0l-1.51,0l1.51,152.68l54.31,0.66l0,-210.11l230.43,0l0.21,210.11c17.74,0 35.49,0 53.22,0c0,-51.04 0,-102.09 0,-153.12l153.35,-0.22l-95.04,450.98z" id="svg_3"/>
  </g>
 </g>
</svg>