<?xml version="1.0"?>
<svg width="150" height="37" viewBox="0 0 300 37" xmlns="http://www.w3.org/2000/svg" xmlns:svg="http://www.w3.org/2000/svg" version="1.1">
 <g class="layer">
  <title>Layer 1</title>
  <g id="SVGRepo_bgCarrier" stroke-width="0"/>
  <g id="SVGRepo_tracerCarrier" stroke-linecap="round" stroke-linejoin="round"/>
  <g id="SVGRepo_iconCarrier">
   <desc>Created with Sketch.</desc>
   <path d="m44.33,36.12l0,-15.69c0,-6.02 -3.96,-9.94 -10.48,-9.94c-3.42,0 -7.08,1.05 -9.63,4.42c-1.99,-2.88 -4.79,-4.42 -9.07,-4.42c-3.23,-0.12 -6.32,1.25 -8.21,3.66l0,-3.15l-5.39,0l0,25.1l5.39,0l0,-14.37c0,-4.41 2.83,-6.53 6.8,-6.53c3.97,0 6.24,2.35 6.24,6.53l0,14.38l5.38,0l0,-14.38c0,-4.41 2.83,-6.53 6.81,-6.53c3.97,0 6.24,2.35 6.24,6.53l0,14.38l5.94,0l-0.02,0.01zm88.45,-24.84l-9.92,0l0,-7.58l-5.37,0l0,7.58l-5.67,0l0,4.41l5.67,0l0,11.8c0,5.75 2.27,9.15 9.06,9.15c2.58,-0.05 5.11,-0.68 7.36,-1.83l-1.71,-4.42c-1.53,0.88 -3.3,1.34 -5.1,1.31c-2.83,0 -4.26,-1.57 -4.26,-4.19l0,-12.02l9.92,0l0,-4.19l0.01,-0.03l0.01,0.01zm50.46,-0.79c-2.98,-0.06 -5.79,1.33 -7.37,3.66l0,-3.15l-5.38,0l0,25.1l5.38,0l0,-14.1c0,-4.19 2.27,-6.8 5.95,-6.8c1.25,0.05 2.48,0.22 3.69,0.52l1.7,-4.71c-1.29,-0.3 -2.62,-0.48 -3.96,-0.52l-0.01,0zm-76.26,2.61c-2.83,-1.83 -6.81,-2.61 -11.05,-2.61c-6.81,0 -11.05,2.88 -11.05,7.85c0,4.19 3.12,6.53 9.06,7.33l2.83,0.26c3.12,0.52 5.11,1.57 5.11,2.88c0,1.83 -2.27,3.15 -6.52,3.15c-3.25,0.06 -6.44,-0.86 -9.07,-2.61l-2.83,3.92c3.97,2.61 8.79,3.15 11.64,3.15c7.94,0 12.19,-3.39 12.19,-8.11c0,-4.42 -3.43,-6.53 -9.36,-7.33l-2.83,-0.26c-2.55,-0.26 -4.79,-1.05 -4.79,-2.61c0,-1.83 2.27,-3.16 5.39,-3.16c3.42,0 6.8,1.31 8.5,2.09l2.79,-3.95l-0.01,0.01zm82.21,10.46c0,7.57 5.38,13.07 14.17,13.07c3.97,0 6.81,-0.78 9.64,-2.88l-2.83,-3.92c-2,1.5 -4.5,2.32 -7.08,2.35c-4.79,0 -8.51,-3.39 -8.51,-8.37c0,-4.97 3.67,-8.34 8.51,-8.34c2.58,0.03 5.08,0.86 7.08,2.36l2.83,-3.92c-2.83,-2.09 -5.67,-2.88 -9.64,-2.88c-8.5,-0.52 -14.17,4.97 -14.17,12.55l0,-0.03l0,0.01zm-37.99,-13.08c-7.93,0 -13.33,5.23 -13.33,13.08c0,7.84 5.67,13.07 13.89,13.07c4,0.08 7.9,-1.12 11.05,-3.39l-2.83,-3.66c-2.28,1.63 -5.06,2.55 -7.94,2.61c-3.69,0 -7.65,-2.09 -8.21,-6.53l20.12,0l0,-2.09c0,-7.85 -5.11,-13.08 -12.76,-13.08l0,-0.01l0.01,0zm-0.28,4.71c3.97,0 6.8,2.35 7.08,6.28l-14.74,0c0.85,-3.66 3.43,-6.28 7.66,-6.28zm-73.42,8.37l0,-12.55l-5.39,0l0,3.16c-1.98,-2.36 -4.79,-3.66 -8.79,-3.66c-7.65,0 -13.33,5.49 -13.33,13.08c0,7.58 5.67,13.07 13.33,13.07c3.97,0 6.81,-1.3 8.79,-3.66l0,3.16l5.39,0l0,-12.59l0,-0.01zm-21.83,0c0,-4.71 3.12,-8.37 8.51,-8.37c5.1,0 8.21,3.66 8.21,8.37c0,4.97 -3.43,8.36 -8.21,8.36c-5.39,0.26 -8.51,-3.66 -8.51,-8.36zm209.5,-13.08c-2.98,-0.06 -5.78,1.33 -7.37,3.66l0,-3.15l-5.38,0l0,25.1l5.38,0l0,-14.1c0,-4.19 2.27,-6.8 5.96,-6.8c1.24,0.05 2.48,0.22 3.68,0.52l1.71,-4.71c-1.3,-0.3 -2.63,-0.48 -3.97,-0.52l0.01,0l-0.02,0zm-20.98,13.08l0,-12.55l-5.38,0l0,3.16c-1.99,-2.36 -4.79,-3.66 -8.79,-3.66c-7.65,0 -13.33,5.49 -13.33,13.08c0,7.58 5.67,13.07 13.33,13.07c3.97,0 6.81,-1.3 8.79,-3.66l0,3.16l5.38,0l0,-12.59l0,-0.01zm-21.83,0c0,-4.71 3.12,-8.37 8.51,-8.37c5.11,0 8.21,3.66 8.21,8.37c0,4.97 -3.43,8.36 -8.21,8.36c-5.39,0.26 -8.51,-3.66 -8.51,-8.36zm76.54,0l0,-22.49l-5.38,0l0,13.07c-1.98,-2.35 -4.79,-3.66 -8.79,-3.66c-7.65,0 -13.33,5.5 -13.33,13.08c0,7.58 5.67,13.07 13.33,13.07c3.97,0 6.81,-1.3 8.79,-3.66l0,3.16l5.38,0l0,-12.57zm-21.82,0c0,-4.71 3.12,-8.37 8.5,-8.37c5.11,0 8.22,3.66 8.22,8.37c0,4.97 -3.43,8.36 -8.22,8.36c-5.39,0.27 -8.51,-3.65 -8.51,-8.36l0.01,0z" id="svg_1"/>
  </g>
 </g>
</svg>