<?xml version="1.0"?>
<svg width="240" height="240" viewBox="0 0 480 480" xmlns="http://www.w3.org/2000/svg" xmlns:svg="http://www.w3.org/2000/svg" version="1.1" xml:space="preserve">
 <g class="layer">
  <title>Layer 1</title>
  <g id="SVGRepo_bgCarrier" stroke-width="0"/>
  <g id="SVGRepo_tracerCarrier" stroke-linecap="round" stroke-linejoin="round"/>
  <g id="SVGRepo_iconCarrier">
   <path d="m449.22,188.86c-10.05,-8.79 -20.44,-17.88 -23.94,-26.3c-3.78,-9.09 -2.9,-23.36 -2.05,-37.14c1.33,-21.78 2.71,-44.27 -11.77,-58.78c-14.49,-14.48 -37,-13.07 -58.78,-11.77c-13.82,0.83 -28.07,1.68 -37.14,-2.05c-8.43,-3.5 -17.51,-13.89 -26.3,-23.94c-13.98,-15.98 -29.85,-34.11 -51.27,-34.11s-37.29,18.13 -51.24,34.09c-8.79,10.05 -17.88,20.44 -26.3,23.94c-9.09,3.77 -23.36,2.9 -37.14,2.05c-21.79,-1.31 -44.29,-2.74 -58.78,11.77c-14.48,14.51 -13.12,36.99 -11.77,58.77c0.83,13.81 1.7,28.06 -2.05,37.14c-3.5,8.43 -13.89,17.52 -23.94,26.31c-15.98,13.97 -34.11,29.84 -34.11,51.26s18.13,37.29 34.09,51.25c10.05,8.79 20.44,17.87 23.94,26.3c3.77,9.09 2.9,23.36 2.05,37.14c-1.33,21.78 -2.71,44.27 11.77,58.77c14.51,14.51 37.01,13.1 58.77,11.78c13.79,-0.85 28.06,-1.73 37.14,2.05c8.43,3.5 17.52,13.89 26.31,23.93c13.97,15.98 29.84,34.12 51.26,34.12s37.29,-18.14 51.25,-34.09c8.79,-10.05 17.87,-20.44 26.3,-23.94c9.09,-3.76 23.34,-2.9 37.14,-2.05c21.76,1.3 44.29,2.71 58.77,-11.77c14.49,-14.51 13.12,-37 11.78,-58.78c-0.83,-13.8 -1.71,-28.05 2.05,-37.14c3.5,-8.43 13.89,-17.51 23.93,-26.3c15.98,-13.98 34.12,-29.85 34.12,-51.27s-18.14,-37.29 -34.09,-51.24zm-14.08,86.47c-11.89,10.41 -24.2,21.16 -29.59,34.19c-5.66,13.63 -4.63,30.4 -3.63,46.62c1.04,17.04 2.11,34.66 -5.57,42.36c-7.68,7.7 -25.34,6.64 -42.37,5.57c-16.21,-0.98 -32.98,-2.03 -46.61,3.63c-13.03,5.39 -23.79,17.68 -34.2,29.59c-11.52,13.18 -23.46,26.81 -35.2,26.81c-11.73,0 -23.68,-13.63 -35.2,-26.81c-10.41,-11.89 -21.16,-24.2 -34.19,-29.59c-8.32,-3.46 -17.79,-4.42 -27.61,-4.42c-6.27,0 -12.69,0.39 -19.03,0.77c-17.02,1.04 -34.66,2.13 -42.36,-5.57c-7.71,-7.7 -6.62,-25.32 -5.57,-42.37c1,-16.21 2.02,-32.98 -3.63,-46.61c-5.4,-13.03 -17.68,-23.79 -29.59,-34.2c-13.18,-11.52 -26.81,-23.46 -26.81,-35.2c0,-11.73 13.63,-23.68 26.83,-35.22c11.89,-10.41 24.19,-21.16 29.59,-34.19c5.65,-13.64 4.63,-30.4 3.63,-46.62c-1.05,-17.04 -2.11,-34.66 5.57,-42.36c7.7,-7.71 25.38,-6.6 42.36,-5.57c16.26,1.02 33.01,2.02 46.62,-3.63c13.03,-5.4 23.78,-17.68 34.19,-29.59c11.52,-13.18 23.47,-26.81 35.2,-26.81c11.74,0 23.68,13.63 35.23,26.83c10.41,11.89 21.16,24.19 34.19,29.59c13.63,5.65 30.38,4.65 46.62,3.63c17.02,-1.05 34.68,-2.11 42.36,5.57c7.7,7.7 6.62,25.32 5.57,42.36c-1,16.22 -2.03,32.99 3.63,46.62c5.4,13.03 17.68,23.78 29.59,34.19c13.18,11.52 26.81,23.47 26.81,35.2c0,11.74 -13.63,23.68 -26.83,35.23z" id="svg_6" transform="rotate(21.8583 237.974 240.11)"/>
   <path d="m244.51,139.07c-8.69,-2.65 -18.81,-1.2 -25.51,3.68l-46.84,33.99c-9.13,6.63 -9.13,17.4 0,24.03c9.13,6.63 23.99,6.63 33.12,0l6.83,-4.96l0,128.95c0,9.39 10.49,17 23.42,17s23.42,-7.62 23.46,-17l0,-169.98c0,-6.87 -5.73,-13.1 -14.49,-15.71l0.01,0z" id="svg_1"/>
  </g>
 </g>
</svg>