<?xml version="1.0"?>
<svg width="675" height="185" xmlns="http://www.w3.org/2000/svg" xmlns:svg="http://www.w3.org/2000/svg" enable-background="new 0 0 780 500" stroke-width="0.0078" version="1.1" xml:space="preserve">
 <g class="layer">
  <title>Layer 1</title>
  <g id="SVGRepo_bgCarrier" stroke-width="0"/>
  <g id="SVGRepo_tracerCarrier" stroke="#CCCCCC" stroke-linecap="round" stroke-linejoin="round" stroke-width="7.8"/>
  <g id="SVGRepo_iconCarrier">
   <path d="m118.58,14.45c-8.4,-5.77 -19.36,-8.67 -32.88,-8.67l-52.35,0c-4.14,0 -6.43,2.07 -6.87,6.22l-21.26,133.48c-0.22,1.31 0.11,2.51 0.98,3.6c0.87,1.09 1.96,1.63 3.27,1.63l24.86,0c4.37,0 6.76,-2.07 7.2,-6.21l5.89,-35.99c0.22,-1.74 0.98,-3.16 2.29,-4.25c1.31,-1.09 2.95,-1.81 4.91,-2.13c1.96,-0.33 3.81,-0.49 5.56,-0.49c1.74,0 3.81,0.11 6.22,0.33c2.39,0.21 3.92,0.32 4.58,0.32c18.75,0 33.48,-5.28 44.16,-15.87c10.69,-10.57 16.04,-25.24 16.04,-44c0,-12.87 -4.2,-22.19 -12.6,-27.97zm-26.99,40.08c-1.09,7.63 -3.93,12.65 -8.51,15.05c-4.58,2.4 -11.12,3.6 -19.63,3.6l-10.79,0.32l5.56,-35c0.43,-2.4 1.85,-3.6 4.25,-3.6l6.22,0c8.72,0 15.05,1.26 18.98,3.76c3.92,2.51 5.23,7.8 3.92,15.87z" fill="#003087" id="svg_2"/>
   <path d="m670.99,6.85l-24.21,0c-2.4,0 -3.82,1.2 -4.25,3.6l-21.27,136.1l-0.33,0.65c0,1.1 0.44,2.13 1.31,3.11c0.87,0.98 1.97,1.47 3.28,1.47l21.59,0c4.14,0 6.43,-2.06 6.87,-6.21l21.27,-133.81l0,-0.33c-0.01,-3.05 -1.43,-4.58 -4.26,-4.58z" fill="#009CDE" id="svg_3"/>
   <path d="m378.51,59.53c0,-1.09 -0.44,-2.13 -1.31,-3.11c-0.87,-0.98 -1.85,-1.47 -2.94,-1.47l-25.19,0c-2.41,0 -4.37,1.1 -5.89,3.27l-34.68,51.04l-14.39,-49.07c-1.1,-3.49 -3.5,-5.24 -7.2,-5.24l-24.54,0c-1.1,0 -2.08,0.49 -2.94,1.47c-0.88,0.98 -1.31,2.02 -1.31,3.11c0,0.44 2.12,6.87 6.38,19.3c4.25,12.44 8.83,25.85 13.74,40.25c4.9,14.39 7.46,22.03 7.68,22.9c-17.88,24.43 -26.82,37.51 -26.82,39.26c0,2.83 1.41,4.25 4.25,4.25l25.19,0c2.4,0 4.36,-1.09 5.89,-3.27l83.43,-120.4c0.43,-0.43 0.65,-1.19 0.65,-2.29z" fill="#003087" id="svg_4"/>
   <path d="m613.09,54.95l-24.87,0c-3.05,0 -4.9,3.6 -5.55,10.8c-5.68,-8.72 -16.03,-13.09 -31.09,-13.09c-15.7,0 -29.06,5.89 -40.07,17.67c-11.02,11.78 -16.52,25.63 -16.52,41.55c0,12.87 3.76,23.12 11.28,30.75c7.52,7.64 17.61,11.45 30.27,11.45c6.32,0 12.75,-1.31 19.3,-3.92c6.54,-2.62 11.66,-6.11 15.37,-10.47c0,0.22 -0.22,1.19 -0.65,2.94c-0.44,1.75 -0.65,3.06 -0.65,3.92c0,3.5 1.41,5.24 4.25,5.24l22.58,0c4.13,0 6.54,-2.07 7.19,-6.22l13.41,-85.39c0.22,-1.31 -0.11,-2.5 -0.98,-3.6c-0.87,-1.08 -1.96,-1.63 -3.27,-1.63zm-42.69,64.45c-5.57,5.45 -12.27,8.18 -20.12,8.18c-6.33,0 -11.45,-1.74 -15.38,-5.23c-3.93,-3.49 -5.89,-8.29 -5.89,-14.4c0,-8.06 2.73,-14.88 8.18,-20.45c5.45,-5.56 12.21,-8.34 20.28,-8.34c6.11,0 11.18,1.8 15.22,5.4c4.03,3.6 6.05,8.56 6.05,14.89c0,7.85 -2.78,14.5 -8.34,19.95z" fill="#009CDE" id="svg_5"/>
   <path d="m241.43,54.95l-24.86,0c-3.06,0 -4.91,3.6 -5.57,10.8c-5.89,-8.72 -16.25,-13.09 -31.08,-13.09c-15.7,0 -29.06,5.89 -40.08,17.67c-11.01,11.78 -16.52,25.63 -16.52,41.55c0,12.87 3.77,23.12 11.29,30.75c7.53,7.64 17.61,11.45 30.26,11.45c6.11,0 12.44,-1.31 18.98,-3.92c6.54,-2.62 11.78,-6.11 15.7,-10.47c-0.87,2.61 -1.31,4.9 -1.31,6.86c0,3.5 1.42,5.24 4.26,5.24l22.57,0c4.14,0 6.54,-2.07 7.2,-6.22l13.41,-85.39c0.22,-1.31 -0.11,-2.5 -0.98,-3.6c-0.87,-1.08 -1.96,-1.63 -3.27,-1.63zm-42.69,64.61c-5.57,5.36 -12.39,8.02 -20.45,8.02c-6.33,0 -11.4,-1.74 -15.22,-5.23c-3.81,-3.49 -5.72,-8.28 -5.72,-14.4c0,-8.06 2.72,-14.88 8.18,-20.44c5.45,-5.57 12.21,-8.35 20.28,-8.35c6.11,0 11.18,1.8 15.22,5.4c4.03,3.6 6.05,8.56 6.05,14.89c0,8.07 -2.78,14.78 -8.34,20.11z" fill="#003087" id="svg_6"/>
   <path d="m490.24,15.52c-8.4,-5.77 -19.36,-8.67 -32.88,-8.67l-52.02,0c-4.36,0 -6.76,2.07 -7.2,6.22l-21.26,133.48c-0.22,1.31 0.1,2.51 0.98,3.6c0.86,1.09 1.96,1.63 3.27,1.63l26.83,0c2.61,0 4.36,-1.41 5.23,-4.25l5.89,-37.95c0.22,-1.74 0.98,-3.16 2.29,-4.25c1.31,-1.09 2.94,-1.81 4.91,-2.13c1.96,-0.33 3.81,-0.49 5.56,-0.49c1.74,0 3.82,0.11 6.22,0.33c2.39,0.21 3.93,0.32 4.58,0.32c18.75,0 33.47,-5.28 44.16,-15.87c10.69,-10.57 16.03,-25.24 16.03,-44c0.01,-12.87 -4.2,-22.19 -12.59,-27.97zm-33.53,53.82c-4.8,3.27 -12,4.91 -21.6,4.91l-10.47,0.32l5.57,-35c0.43,-2.4 1.84,-3.6 4.25,-3.6l5.88,0c4.8,0 8.62,0.22 11.46,0.65c2.83,0.44 5.56,1.8 8.18,4.09c2.62,2.29 3.92,5.62 3.92,9.98c0,9.16 -2.4,15.38 -7.19,18.65z" fill="#009CDE" id="svg_7"/>
  </g>
 </g>
</svg>